# Blender 4.1.1
# www.blender.org
mtllib axis.mtl
o Cube
v 30.231279 0.924567 -0.924567
v 30.231279 -0.924567 -0.924567
v 30.231279 0.924567 0.924567
v 30.231279 -0.924567 0.924567
v 3.048721 0.924567 -0.924567
v 3.048721 -0.924567 -0.924567
v 3.048721 0.924567 0.924567
v 3.048721 -0.924567 0.924567
v 2.926540 -1.013425 0.640000
v 3.440000 -1.013425 -1.013425
v 30.353460 -0.640000 -1.013425
v 2.926540 0.640000 1.013425
v 30.353460 -0.640000 1.013425
v 2.926540 -0.640000 -1.013425
v 3.440000 1.013425 1.013425
v 30.353460 1.013425 0.640000
v 29.839998 -1.013425 1.013425
v 2.926540 1.013425 -0.640000
v 29.839998 1.013425 -1.013425
v 30.353460 -1.013425 -0.640000
v 2.926540 -1.013425 -0.640000
v 30.353460 0.640000 -1.013425
v 2.926540 -0.640000 1.013425
v 30.353460 0.640000 1.013425
v 2.926540 0.640000 -1.013425
v 30.353460 1.013425 -0.640000
v 2.926540 1.013425 0.640000
v 30.353460 -1.013425 0.640000
v 3.440000 -1.013425 1.013425
v 3.440000 1.013425 -1.013425
v 29.839998 -1.013425 -1.013425
v 29.839998 1.013425 1.013425
v 3.440001 1.280000 -0.640000
v 3.440000 -0.640000 1.280000
v 2.560000 0.640000 0.640000
v 2.560000 -0.640000 0.640000
v 2.560000 -0.640000 -0.640000
v 29.839998 -1.280000 -0.640000
v 30.719999 0.640000 -0.640000
v 30.719999 -0.640000 -0.640000
v 30.719999 -0.640000 0.640000
v 29.839998 -0.640000 -1.280000
v 3.440000 0.640000 -1.280000
v 3.440000 -0.640000 -1.280000
v 3.440000 -1.280000 -0.640000
v 3.440000 -1.280000 0.640000
v 29.839998 0.640000 1.280000
v 29.839998 -0.640000 1.280000
v 29.839998 1.280000 -0.640000
v 29.839998 1.280000 0.640000
v 29.839998 0.640000 -1.280000
v 30.719999 0.640000 0.640000
v 29.839998 -1.280000 0.640000
v 2.560000 0.640000 -0.640000
v 3.440000 0.640000 1.280000
v 3.440001 1.280000 0.640000
v 0.924552 0.924567 30.231287
v 0.924552 -0.924567 30.231287
v -0.924581 0.924567 30.231287
v -0.924581 -0.924567 30.231287
v 0.924549 0.924567 3.048727
v 0.924549 -0.924567 3.048727
v -0.924586 0.924567 3.048727
v -0.924586 -0.924567 3.048727
v -0.640019 -1.013425 2.926546
v 1.013407 -1.013425 3.440008
v 1.013411 -0.640000 30.353472
v -1.013443 0.640000 2.926546
v -1.013439 -0.640000 30.353472
v 1.013407 -0.640000 2.926546
v -1.013443 1.013425 3.440008
v -0.640014 1.013425 30.353472
v -1.013439 -1.013425 29.840006
v 0.639982 1.013425 2.926546
v 1.013411 1.013425 29.840006
v 0.639985 -1.013425 30.353472
v 0.639982 -1.013425 2.926546
v 1.013411 0.640000 30.353472
v -1.013443 -0.640000 2.926546
v -1.013439 0.640000 30.353472
v 1.013407 0.640000 2.926546
v 0.639985 1.013425 30.353472
v -0.640019 1.013425 2.926546
v -0.640014 -1.013425 30.353472
v -1.013443 -1.013425 3.440008
v 1.013407 1.013425 3.440008
v 1.013411 -1.013425 29.840006
v -1.013439 1.013425 29.840006
v 0.639982 1.280000 3.440008
v -1.280018 -0.640000 3.440008
v -0.640019 0.640000 2.560007
v -0.640019 -0.640000 2.560007
v 0.639982 -0.640000 2.560007
v 0.639985 -1.280000 29.840006
v 0.639985 0.640000 30.720011
v 0.639985 -0.640000 30.720011
v -0.640014 -0.640000 30.720011
v 1.279986 -0.640000 29.840006
v 1.279981 0.640000 3.440008
v 1.279981 -0.640000 3.440008
v 0.639982 -1.280000 3.440008
v -0.640019 -1.280000 3.440008
v -1.280014 0.640000 29.840006
v -1.280014 -0.640000 29.840006
v 0.639985 1.280000 29.840006
v -0.640014 1.280000 29.840006
v 1.279986 0.640000 29.840006
v -0.640014 0.640000 30.720011
v -0.640014 -1.280000 29.840006
v 0.639982 0.640000 2.560007
v -1.280018 0.640000 3.440008
v -0.640019 1.280000 3.440008
v -0.924619 29.591263 -0.924567
v 0.924514 29.591263 -0.924567
v -0.924619 29.591263 0.924567
v 0.924514 29.591263 0.924567
v -0.924623 2.408705 -0.924567
v 0.924510 2.408705 -0.924567
v -0.924623 2.408705 0.924567
v 0.924510 2.408705 0.924567
v 1.013368 2.286524 0.640000
v 1.013368 2.799984 -1.013425
v 0.639947 29.713444 -1.013425
v -0.640056 2.286524 1.013425
v 0.639947 29.713444 1.013425
v 0.639943 2.286524 -1.013425
v -1.013481 2.799984 1.013425
v -1.013477 29.713444 0.640000
v 1.013374 29.199982 1.013425
v -1.013481 2.286524 -0.640000
v -1.013477 29.199982 -1.013425
v 1.013374 29.713444 -0.640000
v 1.013368 2.286524 -0.640000
v -0.640053 29.713444 -1.013425
v 0.639943 2.286524 1.013425
v -0.640053 29.713444 1.013425
v -0.640056 2.286524 -1.013425
v -1.013477 29.713444 -0.640000
v -1.013481 2.286524 0.640000
v 1.013374 29.713444 0.640000
v 1.013368 2.799984 1.013425
v -1.013481 2.799984 -1.013425
v 1.013374 29.199982 -1.013425
v -1.013477 29.199982 1.013425
v -1.280056 2.799984 -0.640000
v 0.639943 2.799984 1.280000
v -0.640056 1.919983 0.640000
v 0.639943 1.919983 0.640000
v 0.639943 1.919983 -0.640000
v 1.279948 29.199982 -0.640000
v -0.640053 30.079983 -0.640000
v 0.639947 30.079983 -0.640000
v 0.639947 30.079983 0.640000
v 0.639947 29.199982 -1.280000
v -0.640056 2.799984 -1.280000
v 0.639943 2.799984 -1.280000
v 1.279943 2.799984 -0.640000
v 1.279943 2.799984 0.640000
v -0.640053 29.199982 1.280000
v 0.639947 29.199982 1.280000
v -1.280052 29.199982 -0.640000
v -1.280052 29.199982 0.640000
v -0.640053 29.199982 -1.280000
v -0.640053 30.079983 0.640000
v 1.279948 29.199982 0.640000
v -0.640056 1.919983 -0.640000
v -0.640056 2.799984 1.280000
v -1.280056 2.799984 0.640000
vn 0.4584 0.6284 -0.6284
vn 0.4584 -0.6284 -0.6284
vn 0.4584 0.6284 0.6284
vn 0.4584 -0.6284 0.6285
vn -0.4584 0.6284 -0.6284
vn -0.4584 -0.6284 -0.6284
vn -0.4584 0.6284 0.6284
vn -0.4584 -0.6284 0.6284
vn -0.5807 -0.7682 0.2696
vn -0.1833 -0.6951 -0.6951
vn 0.5807 -0.2696 -0.7682
vn -0.5807 0.2696 0.7682
vn 0.5807 -0.2696 0.7682
vn -0.5807 -0.2696 -0.7682
vn -0.1833 0.6951 0.6951
vn 0.5807 0.7682 0.2696
vn 0.1833 -0.6951 0.6951
vn -0.5807 0.7682 -0.2696
vn 0.1833 0.6951 -0.6951
vn 0.5807 -0.7682 -0.2696
vn -0.5807 -0.7682 -0.2696
vn 0.5807 0.2696 -0.7682
vn -0.5807 -0.2696 0.7682
vn 0.5807 0.2696 0.7682
vn -0.5807 0.2696 -0.7682
vn 0.5807 0.7682 -0.2696
vn -0.5807 0.7682 0.2696
vn 0.5807 -0.7682 0.2696
vn -0.1833 -0.6951 0.6951
vn -0.1833 0.6951 -0.6951
vn 0.1833 -0.6951 -0.6951
vn 0.1833 0.6951 0.6951
vn -0.2118 0.9374 -0.2765
vn -0.2118 -0.2765 0.9374
vn -0.8839 0.3307 0.3307
vn -0.8839 -0.3307 0.3307
vn -0.8839 -0.3307 -0.3307
vn 0.2118 -0.9374 -0.2765
vn 0.8839 0.3307 -0.3307
vn 0.8839 -0.3307 -0.3307
vn 0.8839 -0.3307 0.3307
vn 0.2118 -0.2765 -0.9374
vn -0.2118 0.2765 -0.9374
vn -0.2118 -0.2765 -0.9374
vn -0.2118 -0.9374 -0.2765
vn -0.2118 -0.9374 0.2765
vn 0.2118 0.2765 0.9374
vn 0.2118 -0.2765 0.9374
vn 0.2118 0.9374 -0.2765
vn 0.2118 0.9374 0.2765
vn 0.2118 0.2765 -0.9374
vn 0.8839 0.3307 0.3307
vn 0.2118 -0.9374 0.2765
vn -0.8839 0.3307 -0.3307
vn -0.2118 0.2765 0.9374
vn -0.2118 0.9374 0.2765
vn 0.6285 0.6285 0.4584
vn 0.6285 -0.6285 0.4584
vn -0.6285 0.6285 0.4584
vn -0.6285 -0.6285 0.4584
vn 0.6285 0.6284 -0.4584
vn 0.6285 -0.6284 -0.4584
vn -0.6285 0.6284 -0.4584
vn -0.6285 -0.6284 -0.4584
vn -0.2696 -0.7682 -0.5807
vn 0.6951 -0.6951 -0.1833
vn 0.7682 -0.2696 0.5807
vn -0.7682 0.2696 -0.5807
vn -0.7682 -0.2696 0.5807
vn 0.7682 -0.2696 -0.5807
vn -0.6951 0.6951 -0.1833
vn -0.2696 0.7682 0.5807
vn -0.6951 -0.6951 0.1833
vn 0.2696 0.7682 -0.5807
vn 0.6951 0.6951 0.1833
vn 0.2696 -0.7682 0.5807
vn 0.2696 -0.7682 -0.5807
vn 0.7682 0.2696 0.5807
vn -0.7682 -0.2696 -0.5807
vn -0.7682 0.2696 0.5807
vn 0.7682 0.2696 -0.5807
vn 0.2696 0.7682 0.5807
vn -0.2696 0.7682 -0.5807
vn -0.2696 -0.7682 0.5807
vn -0.6951 -0.6951 -0.1833
vn 0.6951 0.6951 -0.1833
vn 0.6951 -0.6951 0.1833
vn -0.6951 0.6951 0.1833
vn 0.2765 0.9374 -0.2118
vn -0.9374 -0.2765 -0.2118
vn -0.3307 0.3307 -0.8839
vn -0.3307 -0.3307 -0.8839
vn 0.3307 -0.3307 -0.8839
vn 0.2765 -0.9374 0.2118
vn 0.3307 0.3307 0.8839
vn 0.3307 -0.3307 0.8839
vn -0.3307 -0.3307 0.8839
vn 0.9374 -0.2765 0.2118
vn 0.9374 0.2765 -0.2118
vn 0.9374 -0.2765 -0.2118
vn 0.2765 -0.9374 -0.2118
vn -0.2765 -0.9374 -0.2118
vn -0.9374 0.2765 0.2118
vn -0.9374 -0.2765 0.2118
vn 0.2765 0.9374 0.2118
vn -0.2765 0.9374 0.2118
vn 0.9374 0.2765 0.2118
vn -0.3307 0.3307 0.8839
vn -0.2765 -0.9374 0.2118
vn 0.3307 0.3307 -0.8839
vn -0.9374 0.2765 -0.2118
vn -0.2765 0.9374 -0.2118
vn -0.6285 0.4584 -0.6284
vn 0.6284 0.4584 -0.6285
vn -0.6285 0.4584 0.6284
vn 0.6284 0.4584 0.6285
vn -0.6285 -0.4584 -0.6284
vn 0.6285 -0.4584 -0.6284
vn -0.6285 -0.4584 0.6284
vn 0.6285 -0.4584 0.6284
vn 0.7682 -0.5807 0.2696
vn 0.6951 -0.1833 -0.6951
vn 0.2696 0.5807 -0.7682
vn -0.2696 -0.5807 0.7682
vn 0.2696 0.5807 0.7682
vn 0.2696 -0.5807 -0.7682
vn -0.6951 -0.1833 0.6951
vn -0.7682 0.5807 0.2696
vn 0.6951 0.1833 0.6951
vn -0.7682 -0.5807 -0.2696
vn -0.6951 0.1833 -0.6951
vn 0.7682 0.5807 -0.2696
vn 0.7682 -0.5807 -0.2696
vn -0.2696 0.5807 -0.7682
vn 0.2696 -0.5807 0.7682
vn -0.2696 0.5807 0.7682
vn -0.2696 -0.5807 -0.7682
vn -0.7682 0.5807 -0.2696
vn -0.7682 -0.5807 0.2696
vn 0.7682 0.5807 0.2696
vn 0.6951 -0.1833 0.6951
vn -0.6951 -0.1833 -0.6951
vn 0.6951 0.1833 -0.6951
vn -0.6951 0.1833 0.6951
vn -0.9374 -0.2118 -0.2765
vn 0.2765 -0.2118 0.9374
vn -0.3307 -0.8839 0.3307
vn 0.3307 -0.8839 0.3307
vn 0.3307 -0.8839 -0.3307
vn 0.9374 0.2118 -0.2765
vn -0.3307 0.8839 -0.3307
vn 0.3306 0.8839 -0.3307
vn 0.3306 0.8839 0.3307
vn 0.2765 0.2118 -0.9374
vn -0.2765 -0.2118 -0.9374
vn 0.2765 -0.2118 -0.9374
vn 0.9374 -0.2118 -0.2765
vn 0.9374 -0.2118 0.2765
vn -0.2765 0.2118 0.9374
vn 0.2765 0.2118 0.9374
vn -0.9374 0.2118 -0.2765
vn -0.9374 0.2118 0.2765
vn -0.2765 0.2118 -0.9374
vn -0.3307 0.8839 0.3307
vn 0.9374 0.2118 0.2765
vn -0.3307 -0.8839 -0.3307
vn -0.2765 -0.2118 0.9374
vn -0.9374 -0.2118 0.2765
vt 0.094194 0.872696
vt 0.094194 0.894825
vt 0.095148 0.894825
vt 0.095148 0.872696
vt 0.099379 0.878731
vt 0.100832 0.878887
vt 0.100832 0.901429
vt 0.099374 0.901429
vt 0.094127 0.937352
vt 0.094127 0.933132
vt 0.095013 0.933132
vt 0.095013 0.937352
vt 0.094181 0.208343
vt 0.094194 0.186678
vt 0.095148 0.186678
vt 0.095129 0.208189
vt 0.089452 0.060663
vt 0.089452 0.056442
vt 0.090338 0.056442
vt 0.090338 0.060663
vt 0.099374 0.202617
vt 0.100832 0.202617
vt 0.100832 0.180075
vt 0.099374 0.180075
vt 0.099374 0.878886
vt 0.100832 0.878886
vt 0.577590 0.208808
vt 0.577590 0.872696
vt 0.578543 0.872696
vt 0.578543 0.208808
vt 0.092283 0.208653
vt 0.092288 0.186678
vt 0.348938 0.202617
vt 0.351853 0.202617
vt 0.351853 0.180075
vt 0.348938 0.180075
vt 0.585635 0.202772
vt 0.585635 0.878731
vt 0.582728 0.878422
vt 0.582728 0.203082
vt 0.575707 0.069102
vt 0.575707 0.060663
vt 0.576593 0.060663
vt 0.576593 0.069102
vt 0.087679 0.069102
vt 0.089452 0.069102
vt 0.089452 0.073322
vt 0.087679 0.073322
vt 0.092355 0.945792
vt 0.094127 0.945792
vt 0.094127 0.950011
vt 0.092355 0.950011
vt 0.095013 0.945792
vt 0.100832 0.202617
vt 0.099379 0.202772
vt 0.573935 0.069102
vt 0.573935 0.060663
vt 0.343948 0.945791
vt 0.343948 0.937352
vt 0.344834 0.937352
vt 0.344834 0.945791
vt 0.340158 0.069102
vt 0.341931 0.069102
vt 0.341931 0.073322
vt 0.340158 0.073322
vt 0.096459 0.202617
vt 0.096459 0.180075
vt 0.092288 0.872696
vt 0.092288 0.894825
vt 0.091334 0.872696
vt 0.091334 0.894825
vt 0.095019 0.878268
vt 0.096472 0.878422
vt 0.096459 0.901429
vt 0.095001 0.901429
vt 0.091469 0.937352
vt 0.091469 0.933132
vt 0.092355 0.933132
vt 0.092355 0.937352
vt 0.091469 0.950011
vt 0.091469 0.945792
vt 0.095013 0.950011
vt 0.091334 0.208808
vt 0.091334 0.186678
vt 0.086793 0.060663
vt 0.086793 0.056442
vt 0.087679 0.056442
vt 0.087679 0.060663
vt 0.086793 0.073322
vt 0.086793 0.069102
vt 0.090338 0.069102
vt 0.090338 0.073322
vt 0.095001 0.202617
vt 0.095001 0.180075
vt 0.346606 0.945791
vt 0.346606 0.950011
vt 0.344834 0.950011
vt 0.094194 0.208808
vt 0.092288 0.208808
vt 0.344834 0.933132
vt 0.346606 0.933132
vt 0.346606 0.937352
vt 0.348938 0.180075
vt 0.351853 0.180075
vt 0.351858 0.202772
vt 0.348951 0.203082
vt 0.578539 0.208653
vt 0.578539 0.872850
vt 0.096459 0.180075
vt 0.099374 0.180075
vt 0.096472 0.203082
vt 0.582714 0.901428
vt 0.585630 0.901428
vt 0.585630 0.878886
vt 0.582714 0.878886
vt 0.096459 0.878886
vt 0.095001 0.878886
vt 0.092283 0.872850
vt 0.094181 0.873160
vt 0.095129 0.873315
vt 0.095019 0.203237
vt 0.580436 0.873160
vt 0.580450 0.894825
vt 0.578543 0.894825
vt 0.580450 0.872696
vt 0.100832 0.180075
vt 0.095001 0.180075
vt 0.095148 0.208808
vt 0.578611 0.933132
vt 0.580383 0.933132
vt 0.580383 0.937351
vt 0.578611 0.937351
vt 0.587088 0.878886
vt 0.587088 0.202617
vt 0.585630 0.202617
vt 0.585630 0.901429
vt 0.582714 0.901429
vt 0.581403 0.894825
vt 0.581403 0.872696
vt 0.587088 0.878886
vt 0.587088 0.901429
vt 0.581269 0.933132
vt 0.581269 0.937351
vt 0.580436 0.208343
vt 0.580450 0.186678
vt 0.581403 0.186678
vt 0.581385 0.208189
vt 0.575707 0.056442
vt 0.576593 0.056442
vt 0.587088 0.180075
vt 0.585630 0.180075
vt 0.343813 0.208808
vt 0.344762 0.208653
vt 0.344762 0.872850
vt 0.343813 0.872696
vt 0.340158 0.056442
vt 0.341931 0.056442
vt 0.341931 0.060663
vt 0.340158 0.060663
vt 0.578611 0.945791
vt 0.580383 0.945791
vt 0.580383 0.950011
vt 0.578611 0.950011
vt 0.577725 0.945791
vt 0.577725 0.937351
vt 0.577590 0.894825
vt 0.342817 0.060663
vt 0.342817 0.069102
vt 0.581269 0.945791
vt 0.581275 0.878267
vt 0.581256 0.901429
vt 0.577725 0.933132
vt 0.577725 0.950011
vt 0.581269 0.950011
vt 0.577590 0.186678
vt 0.578543 0.186678
vt 0.351858 0.878731
vt 0.348951 0.878422
vt 0.573049 0.060663
vt 0.573049 0.056442
vt 0.573935 0.056442
vt 0.573049 0.073322
vt 0.573049 0.069102
vt 0.573935 0.073322
vt 0.575707 0.073322
vt 0.576593 0.073322
vt 0.581256 0.202617
vt 0.582714 0.202617
vt 0.582714 0.180075
vt 0.581256 0.180075
vt 0.587088 0.202617
vt 0.348938 0.878886
vt 0.347480 0.202617
vt 0.347480 0.878886
vt 0.353311 0.202617
vt 0.353311 0.878886
vt 0.346673 0.186678
vt 0.346659 0.208343
vt 0.344767 0.186678
vt 0.587088 0.901428
vt 0.581256 0.901428
vt 0.581256 0.878886
vt 0.581385 0.873315
vt 0.347492 0.937352
vt 0.347492 0.945791
vt 0.581275 0.203237
vt 0.580450 0.208808
vt 0.581403 0.208808
vt 0.351853 0.901429
vt 0.348938 0.901429
vt 0.346673 0.872696
vt 0.346673 0.894825
vt 0.347627 0.894825
vt 0.347627 0.872696
vt 0.353311 0.901429
vt 0.347492 0.933132
vt 0.347627 0.186678
vt 0.347608 0.208189
vt 0.342817 0.056442
vt 0.353311 0.202617
vt 0.353311 0.180075
vt 0.346659 0.873160
vt 0.347608 0.873315
vt 0.344767 0.894825
vt 0.346673 0.208808
vt 0.347627 0.208808
vt 0.343813 0.894825
vt 0.344767 0.872696
vt 0.347498 0.878268
vt 0.347480 0.901429
vt 0.343948 0.933132
vt 0.343948 0.950011
vt 0.347492 0.950011
vt 0.343813 0.186678
vt 0.339272 0.060663
vt 0.339272 0.056442
vt 0.339272 0.073322
vt 0.339272 0.069102
vt 0.342817 0.073322
vt 0.347480 0.180075
vt 0.351853 0.878886
vt 0.353311 0.878886
vt 0.344767 0.208808
vt 0.347498 0.203237
vt 0.353311 0.180075
vt 0.347480 0.180075
s 1
usemtl Material
f 56/1/56 27/2/27 7/3/7 15/4/15
f 55/5/55 15/6/15 7/7/7 12/8/12
f 54/9/54 18/10/18 5/11/5 25/12/25
f 53/13/53 28/14/28 4/15/4 17/16/17
f 52/17/52 16/18/16 3/19/3 24/20/24
f 51/21/51 19/22/19 1/23/1 22/24/22
f 19/22/19 51/21/51 43/25/43 30/26/30
f 75/27/75 86/28/86 89/29/89 105/30/105
f 28/14/28 53/13/53 38/31/38 20/32/20
f 154/33/154 163/34/163 134/35/134 123/36/123
f 103/37/103 111/38/111 90/39/90 104/40/104
f 97/41/97 108/42/108 80/43/80 69/44/69
f 40/45/40 41/46/41 28/47/28 20/48/20
f 36/49/36 37/50/37 21/51/21 9/52/9
f 37/50/37 54/9/54 25/12/25 14/53/14
f 32/54/32 15/6/15 55/5/55 47/55/47
f 97/41/97 96/56/96 95/57/95 108/42/108
f 135/58/135 124/59/124 147/60/147 148/61/148
f 152/62/152 153/63/153 140/64/140 132/65/132
f 42/66/42 51/21/51 22/24/22 11/67/11
f 27/2/27 56/1/56 33/68/33 18/69/18
f 30/70/30 5/71/5 18/69/18 33/68/33
f 29/72/29 34/73/34 23/74/23 8/75/8
f 12/76/12 7/77/7 27/78/27 35/79/35
f 8/80/8 23/81/23 36/49/36 9/52/9
f 21/51/21 37/50/37 14/53/14 6/82/6
f 31/83/31 2/84/2 20/32/20 38/31/38
f 22/85/22 1/86/1 26/87/26 39/88/39
f 2/89/2 11/90/11 40/45/40 20/48/20
f 28/47/28 41/46/41 13/91/13 4/92/4
f 31/93/31 42/66/42 11/67/11 2/94/2
f 148/61/148 149/95/149 133/96/133 121/97/121
f 33/68/33 56/1/56 50/98/50 49/99/49
f 139/100/139 130/101/130 166/102/166 147/60/147
f 30/70/30 33/68/33 49/99/49 19/83/19
f 125/103/125 136/104/136 159/105/159 160/106/160
f 87/27/87 94/107/94 101/108/101 66/28/66
f 13/109/13 24/110/24 47/55/47 48/111/48
f 70/112/70 81/113/81 99/114/99 100/115/100
f 25/8/25 5/7/5 30/26/30 43/25/43
f 6/75/6 14/74/14 44/116/44 10/117/10
f 42/66/42 31/93/31 10/117/10 44/116/44
f 6/71/6 10/70/10 45/118/45 21/69/21
f 9/2/9 46/119/46 29/120/29 8/3/8
f 34/73/34 29/72/29 17/121/17 48/111/48
f 45/118/45 38/31/38 53/13/53 46/119/46
f 101/108/101 102/122/102 65/123/65 77/124/77
f 83/123/83 112/125/112 89/29/89 74/124/74
f 49/99/49 50/98/50 16/14/16 26/32/26
f 147/60/147 166/102/166 149/95/149 148/61/148
f 24/110/24 3/126/3 32/54/32 47/55/47
f 4/127/4 13/109/13 48/111/48 17/121/17
f 27/78/27 18/10/18 54/9/54 35/79/35
f 1/84/1 19/83/19 49/99/49 26/32/26
f 16/14/16 50/98/50 32/128/32 3/15/3
f 83/129/83 74/130/74 110/131/110 91/132/91
f 86/133/86 75/134/75 107/135/107 99/114/99
f 90/39/90 111/38/111 68/136/68 79/137/79
f 112/125/112 83/123/83 63/138/63 71/139/71
f 111/38/111 71/140/71 63/141/63 68/136/68
f 110/131/110 74/130/74 61/142/61 81/143/81
f 109/144/109 84/145/84 60/146/60 73/147/73
f 108/42/108 72/148/72 59/149/59 80/43/80
f 107/135/107 75/134/75 57/150/57 78/151/78
f 37/50/37 36/49/36 35/79/35 54/9/54
f 26/87/26 16/18/16 52/17/52 39/88/39
f 45/118/45 46/119/46 9/2/9 21/69/21
f 109/144/109 102/122/102 101/108/101 94/107/94
f 11/90/11 22/85/22 39/88/39 40/45/40
f 34/73/34 55/5/55 12/8/12 23/74/23
f 46/119/46 53/13/53 17/16/17 29/120/29
f 143/152/143 150/153/150 157/154/157 122/155/122
f 50/98/50 56/1/56 15/4/15 32/128/32
f 51/21/51 42/66/42 44/116/44 43/25/43
f 138/156/138 128/157/128 164/158/164 151/159/151
f 92/160/92 93/161/93 77/162/77 65/163/65
f 79/164/79 68/165/68 91/132/91 92/160/92
f 86/28/86 61/166/61 74/124/74 89/29/89
f 153/63/153 164/158/164 136/167/136 125/168/125
f 93/161/93 110/131/110 81/143/81 70/169/70
f 85/170/85 90/39/90 79/137/79 64/171/64
f 68/165/68 63/172/63 83/129/83 91/132/91
f 64/173/64 79/164/79 92/160/92 65/163/65
f 77/162/77 93/161/93 70/169/70 62/174/62
f 87/27/87 58/175/58 76/176/76 94/107/94
f 167/177/167 146/178/146 160/106/160 159/105/159
f 78/179/78 57/180/57 82/181/82 95/57/95
f 58/182/58 67/183/67 96/56/96 76/184/76
f 84/185/84 97/41/97 69/44/69 60/186/60
f 87/187/87 98/188/98 67/189/67 58/190/58
f 71/140/71 111/38/111 103/37/103 88/191/88
f 156/192/156 154/33/154 143/193/143 122/194/122
f 151/159/151 164/158/164 153/63/153 152/62/152
f 144/195/144 127/196/127 167/177/167 159/105/159
f 67/183/67 78/179/78 95/57/95 96/56/96
f 140/197/140 165/198/165 150/153/150 132/199/132
f 81/113/81 61/200/61 86/133/86 99/114/99
f 62/201/62 70/112/70 100/115/100 66/202/66
f 39/88/39 52/17/52 41/46/41 40/45/40
f 62/166/62 66/28/66 101/108/101 77/124/77
f 65/123/65 102/122/102 85/203/85 64/138/64
f 82/181/82 72/148/72 108/42/108 95/57/95
f 107/135/107 98/188/98 100/115/100 99/114/99
f 149/95/149 166/102/166 137/204/137 126/205/126
f 80/151/80 59/150/59 88/191/88 103/37/103
f 60/190/60 69/189/69 104/40/104 73/206/73
f 57/175/57 75/27/75 105/30/105 82/176/82
f 72/145/72 106/207/106 88/208/88 59/146/59
f 105/30/105 89/29/89 112/125/112 106/207/106
f 146/178/146 167/177/167 124/209/124 135/210/135
f 41/46/41 52/17/52 24/20/24 13/91/13
f 98/188/98 87/187/87 66/202/66 100/115/100
f 106/207/106 112/125/112 71/139/71 88/208/88
f 55/5/55 34/73/34 48/111/48 47/55/47
f 168/211/168 139/212/139 119/213/119 127/214/127
f 167/177/167 127/196/127 119/215/119 124/209/124
f 166/102/166 130/101/130 117/216/117 137/204/137
f 165/198/165 140/197/140 116/217/116 129/218/129
f 164/158/164 128/157/128 115/219/115 136/167/136
f 163/34/163 131/220/131 113/221/113 134/35/134
f 158/222/158 165/198/165 129/218/129 141/223/141
f 14/74/14 25/8/25 43/25/43 44/116/44
f 157/154/157 158/222/158 121/212/121 133/224/133
f 109/144/109 73/147/73 85/203/85 102/122/102
f 162/225/162 168/211/168 127/214/127 144/226/144
f 142/155/142 117/227/117 130/224/130 145/228/145
f 91/132/91 110/131/110 93/161/93 92/160/92
f 141/229/141 146/178/146 135/210/135 120/230/120
f 124/59/124 119/231/119 139/100/139 147/60/147
f 120/232/120 135/58/135 148/61/148 121/97/121
f 133/96/133 149/95/149 126/205/126 118/233/118
f 143/152/143 114/234/114 132/199/132 150/153/150
f 134/235/134 113/236/113 138/156/138 151/159/151
f 114/237/114 123/238/123 152/62/152 132/65/132
f 140/64/140 153/63/153 125/168/125 116/239/116
f 123/238/123 134/235/134 151/159/151 152/62/152
f 143/193/143 154/33/154 123/36/123 114/240/114
f 98/188/98 107/135/107 78/151/78 67/189/67
f 139/212/139 168/211/168 145/228/145 130/224/130
f 104/40/104 90/39/90 85/170/85 73/206/73
f 155/241/155 163/34/163 154/33/154 156/192/156
f 23/81/23 12/76/12 35/79/35 36/49/36
f 69/189/69 80/151/80 103/37/103 104/40/104
f 142/242/142 131/220/131 163/34/163 155/241/155
f 31/83/31 38/31/38 45/118/45 10/70/10
f 126/210/126 137/209/137 155/241/155 156/192/156
f 158/222/158 157/154/157 150/153/150 165/198/165
f 137/209/137 117/215/117 142/242/142 155/241/155
f 161/243/161 162/225/162 128/197/128 138/199/138
f 118/230/118 126/210/126 156/192/156 122/194/122
f 118/227/118 122/155/122 157/154/157 133/224/133
f 121/212/121 158/222/158 141/223/141 120/213/120
f 160/106/160 146/178/146 141/229/141 129/244/129
f 161/243/161 145/228/145 168/211/168 162/225/162
f 96/56/96 97/41/97 84/185/84 76/184/76
f 136/104/136 115/245/115 144/195/144 159/105/159
f 116/246/116 125/103/125 160/106/160 129/244/129
f 113/234/113 131/152/131 161/243/161 138/199/138
f 128/197/128 162/225/162 144/226/144 115/217/115
f 84/145/84 109/144/109 94/107/94 76/176/76
f 131/152/131 142/155/142 145/228/145 161/243/161
f 105/30/105 106/207/106 72/145/72 82/176/82
