# Blender 4.1.1
# www.blender.org
mtllib map.mtl
o map
v 0.000000 0.000000 0.000000
v 0.000000 0.000000 -128.000000
v 0.000000 128.000000 -128.000000
v 0.000000 128.000000 0.000000
v 128.000000 128.000000 0.000000
v 128.000000 0.000000 0.000000
v 128.000000 0.000000 -128.000000
v 256.000000 0.000000 0.000000
v 256.000000 128.000000 0.000000
v 256.000000 128.000000 -128.000000
v 256.000000 0.000000 -128.000000
v 256.000000 128.000000 -256.000000
v 256.000000 0.000000 -256.000000
v 128.000000 0.000000 -256.000000
v 0.000000 0.000000 -256.000000
v 0.000000 128.000000 -256.000000
v 128.000000 128.000000 -256.000000
v 0.000000 256.000000 -256.000000
v 0.000000 256.000000 -128.000000
v 128.000000 256.000000 -256.000000
v 128.000000 256.000000 -128.000000
v 256.000000 256.000000 -128.000000
v 256.000000 256.000000 -256.000000
v 256.000000 256.000000 0.000000
v 128.000000 256.000000 0.000000
v 0.000000 256.000000 0.000000
v 128.000000 0.000000 -384.000000
v 128.000000 128.000000 -384.000000
v 256.000000 0.000000 -384.000000
v 256.000000 128.000000 -384.000000
v 384.000000 0.000000 -256.000000
v 384.000000 128.000000 -256.000000
v 384.000000 128.000000 -384.000000
v 384.000000 0.000000 -384.000000
v 256.000000 64.000000 -512.000000
v 256.000000 192.000000 -512.000000
v 384.000000 192.000000 -512.000000
v 384.000000 64.000000 -512.000000
v 256.000000 64.000000 -640.000000
v 256.000000 192.000000 -640.000000
v 384.000000 64.000000 -640.000000
v 512.000000 64.000000 -512.000000
v 512.000000 192.000000 -512.000000
v 512.000000 192.000000 -640.000000
v 512.000000 64.000000 -640.000000
v 512.000000 192.000000 -768.000000
v 512.000000 64.000000 -768.000000
v 384.000000 64.000000 -768.000000
v 384.000000 192.000000 -768.000000
v 256.000000 64.000000 -768.000000
v 256.000000 192.000000 -768.000000
v 256.000000 320.000000 -768.000000
v 256.000000 320.000000 -640.000000
v 384.000000 320.000000 -768.000000
v 384.000000 320.000000 -640.000000
v 512.000000 320.000000 -640.000000
v 512.000000 320.000000 -768.000000
v 512.000000 320.000000 -512.000000
v 384.000000 320.000000 -512.000000
v 256.000000 320.000000 -512.000000
vn 1.0000 -0.0000 -0.0000
vn -0.0000 -0.0000 -1.0000
vn -0.0000 1.0000 -0.0000
vn -1.0000 -0.0000 -0.0000
vn -0.0000 -0.0000 1.0000
vn -0.0000 -1.0000 -0.0000
vn -0.0000 0.8944 0.4472
vn -0.0000 -0.8944 -0.4472
vt 0.000000 0.000000
vt 0.968750 0.000000
vt 0.968750 0.968750
vt 0.000000 0.968750
vt 0.031250 0.000000
vt 0.031250 0.968750
vt 1.000000 0.968750
vt 1.000000 0.000000
vt 0.000000 0.031250
vt 0.000000 1.000000
vt 0.968750 1.000000
vt 0.968750 0.031250
vt 0.031250 0.031250
vt 0.031250 1.000000
vt 1.000000 0.031250
vt 1.000000 1.000000
s 0
usemtl Stone
f 1/1/3 6/4/3 7/3/3 2/2/3
f 6/9/3 8/10/3 11/11/3 7/12/3
f 7/13/3 11/14/3 13/11/3 14/12/3
f 2/5/3 7/6/3 14/7/3 15/8/3
f 3/13/1 16/15/1 18/16/1 19/14/1
f 16/9/5 17/12/5 20/11/5 18/10/5
f 19/9/6 18/10/6 20/11/6 21/12/6
f 10/13/4 22/14/4 23/16/4 12/15/4
f 17/5/5 12/8/5 23/16/5 20/14/5
f 21/13/6 20/14/6 23/16/6 22/15/6
f 9/9/4 24/10/4 22/11/4 10/12/4
f 5/13/2 25/14/2 24/16/2 9/15/2
f 25/5/6 21/6/6 22/7/6 24/8/6
f 4/9/1 3/12/1 19/11/1 26/10/1
f 4/9/2 26/10/2 25/11/2 5/12/2
f 26/1/6 19/4/6 21/3/6 25/2/6
f 14/5/3 13/6/3 29/7/3 27/8/3
f 17/1/6 28/10/6 30/11/6 12/2/6
f 13/9/3 31/10/3 34/11/3 29/12/3
f 12/5/6 30/6/6 33/7/6 32/8/6
f 29/5/7 34/14/7 38/11/7 35/2/7
f 30/9/8 36/10/8 37/16/8 33/15/8
f 35/5/3 38/6/3 41/3/3 39/2/3
f 38/9/3 42/10/3 45/11/3 41/12/3
f 41/13/3 45/14/3 47/16/3 48/15/3
f 39/5/3 41/6/3 48/7/3 50/8/3
f 40/13/1 51/15/1 52/16/1 53/14/1
f 51/9/5 49/12/5 54/11/5 52/10/5
f 53/9/6 52/10/6 54/11/6 55/12/6
f 44/13/4 56/14/4 57/16/4 46/15/4
f 49/13/5 46/15/5 57/16/5 54/14/5
f 55/13/6 54/14/6 57/16/6 56/15/6
f 43/9/4 58/10/4 56/11/4 44/12/4
f 37/13/2 59/14/2 58/16/2 43/15/2
f 59/5/6 55/6/6 56/7/6 58/8/6
f 36/9/1 40/12/1 53/11/1 60/10/1
f 36/1/2 60/10/2 59/11/2 37/2/2
f 60/1/6 53/4/6 55/3/6 59/2/6
usemtl StoneTrim
f 1/1/1 2/2/1 3/3/1 4/4/1
f 1/1/2 4/4/2 5/3/2 6/2/2
f 8/1/4 9/4/4 10/3/4 11/2/4
f 6/5/2 5/6/2 9/7/2 8/8/2
f 11/5/4 10/6/4 12/7/4 13/8/4
f 2/5/1 15/8/1 16/7/1 3/6/1
f 15/1/5 14/8/5 17/7/5 16/4/5
f 14/1/1 27/8/1 28/16/1 17/10/1
f 27/1/5 29/8/5 30/16/5 28/10/5
f 31/1/4 32/10/4 33/11/4 34/2/4
f 13/1/2 12/10/2 32/16/2 31/8/2
f 29/1/1 35/2/1 36/11/1 30/10/1
f 34/5/4 33/14/4 37/16/4 38/8/4
f 35/5/1 39/2/1 40/3/1 36/6/1
f 42/1/4 43/4/4 44/3/4 45/2/4
f 38/1/2 37/4/2 43/7/2 42/8/2
f 45/5/4 44/6/4 46/7/4 47/8/4
f 48/5/5 47/8/5 46/7/5 49/6/5
f 39/5/1 50/8/1 51/7/1 40/6/1
f 50/1/5 48/2/5 49/3/5 51/4/5
