# Blender 4.1.1
# www.blender.org
mtllib cornerIn.mtl
o Cube.001
v 32.000000 0.000000 -32.000000
v 32.000000 0.000000 0.000000
v 0.000000 0.000000 -32.000000
v 0.000000 0.000000 0.000000
v 0.000000 64.000000 32.000000
v 32.000000 64.000000 32.000000
v -32.000000 64.000000 0.000000
v -32.000000 64.000000 32.000000
v 0.000000 64.000000 -32.000000
v -32.000000 64.000000 -32.000000
v 32.000000 64.000000 0.000000
v 0.000000 64.000000 0.000000
vn -0.0000 1.0000 -0.0000
vn -0.0000 -0.0000 -1.0000
vn 1.0000 -0.0000 -0.0000
vt 0.502939 0.502939
vt 0.997061 0.502939
vt 0.997061 0.997061
vt 0.502939 0.997061
vt 0.000000 0.006649
vt 0.500000 0.006649
vt 0.500000 0.991506
vt 0.000000 0.991506
vt 0.500000 0.007639
vt 0.992361 0.007639
vt 0.992361 0.500000
vt 0.500000 0.500000
vt 0.007639 0.007639
vt 0.007639 0.500000
vt 0.500000 0.992361
vt 0.007639 0.992361
vt 1.000000 0.006649
vt 1.000000 0.991506
s 0
usemtl FlatCornerIn.001
f 4/1/1 2/2/1 1/3/1 3/4/1
f 5/9/1 6/10/1 11/11/1 12/12/1
f 8/13/1 5/9/1 12/12/1 7/14/1
f 7/14/1 12/12/1 9/15/1 10/16/1
usemtl Side.001
f 2/5/2 4/6/2 12/7/2 11/8/2
f 4/6/3 3/17/3 9/18/3 12/7/3
