# Blender 4.1.1
# www.blender.org
mtllib gem.mtl
o Spin.002
v -8.915883 -7.551712 2.777908
v 0.000000 14.352610 2.777908
v -8.915883 -7.551712 -2.777908
v 0.000000 14.352610 -2.777908
v 0.000000 -17.075834 2.777908
v 8.915883 -7.551712 2.777908
v 0.000000 -17.075834 -2.777908
v 8.915883 -7.551712 -2.777908
v -12.838267 -8.913323 0.000000
v 0.000000 22.627417 0.000000
v 0.000000 -22.627417 0.000000
v 12.838267 -8.913323 0.000000
vn -0.6159 0.2507 -0.7468
vn -0.0000 -0.0000 -1.0000
vn 0.4313 -0.4037 0.8068
vn -0.0000 -0.0000 1.0000
vn -0.4313 -0.4037 0.8068
vn 0.6159 0.2507 0.7468
vn 0.6159 0.2507 -0.7468
vn -0.4313 -0.4037 -0.8068
vn 0.4313 -0.4037 -0.8068
vn -0.6159 0.2507 0.7468
vt 0.110536 0.412093
vt 0.475277 0.982250
vt 0.475277 0.832668
vt 0.221972 0.436707
vt 0.728581 0.436707
vt 0.475277 0.264541
vt 0.475277 0.164185
vt 0.840018 0.412093
s 0
usemtl Gem1.001
f 9/1/1 10/2/1 4/3/1 3/4/1
f 3/4/2 4/3/2 8/5/2 7/6/2
f 11/7/3 12/8/3 6/5/3 5/6/3
f 5/6/4 6/5/4 2/3/4 1/4/4
f 9/1/5 11/7/5 5/6/5 1/4/5
f 12/8/6 10/2/6 2/3/6 6/5/6
f 8/5/7 4/3/7 10/2/7 12/8/7
f 3/4/8 7/6/8 11/7/8 9/1/8
f 7/6/9 8/5/9 12/8/9 11/7/9
f 1/4/10 2/3/10 10/2/10 9/1/10
